<?xml version="1.0" encoding="iso-8859-1"?>
<!-- Generator: Adobe Illustrator 19.0.0, SVG Export Plug-In . SVG Version: 6.00 Build 0)  -->
<svg version="1.1" id="Layer_1" xmlns="http://www.w3.org/2000/svg" xmlns:xlink="http://www.w3.org/1999/xlink" x="0px" y="0px"
	 viewBox="0 0 512.001 512.001" style="enable-background:new 0 0 512.001 512.001;" xml:space="preserve">
<g>
	<g>
		<path d="M504.963,446.232L31.752,36.418C19.549,25.849,0,34.067,0,51.362c0,42.899,0,332.059,0,409.744
			c0,10.597,8.592,19.18,19.189,19.18h71.606c3.532,0,6.396-2.864,6.396-6.396v-30.589c0-10.333,7.94-19.224,18.262-19.71
			c11.02-0.519,20.117,8.262,20.117,19.167v31.131c0,3.532,2.864,6.396,6.396,6.396h6.703c3.532,0,6.396-2.864,6.396-6.396v-30.589
			c0-10.333,7.94-19.224,18.262-19.71c11.02-0.519,20.117,8.262,20.117,19.167v31.131c0,3.532,2.864,6.396,6.396,6.396h6.703
			c3.532,0,6.396-2.864,6.396-6.396v-30.589c0-10.333,7.94-19.224,18.262-19.71c11.02-0.519,20.117,8.262,20.117,19.167v31.131
			c0,3.532,2.864,6.396,6.396,6.396h6.703c3.533,0,6.396-2.864,6.396-6.396v-30.589c0-10.333,7.94-19.224,18.262-19.71
			c11.02-0.519,20.117,8.262,20.117,19.167v31.131c0,3.532,2.864,6.396,6.396,6.396h177.229
			C510.245,480.286,519.154,458.521,504.963,446.232z M232.128,383.094H116.38c-10.597,0-19.189-8.592-19.189-19.189v-100.24
			c0-16.378,19.33-25.264,31.751-14.506L244.69,349.4C258.089,361.004,249.844,383.094,232.128,383.094z"/>
	</g>
</g>
<g>
</g>
<g>
</g>
<g>
</g>
<g>
</g>
<g>
</g>
<g>
</g>
<g>
</g>
<g>
</g>
<g>
</g>
<g>
</g>
<g>
</g>
<g>
</g>
<g>
</g>
<g>
</g>
<g>
</g>
</svg>
